<?xml version="1.0" encoding="UTF-8" standalone="no"?>
<!-- Created with Inkscape (http://www.inkscape.org/) -->

<svg
   xmlns:dc="http://purl.org/dc/elements/1.1/"
   xmlns:cc="http://creativecommons.org/ns#"
   xmlns:rdf="http://www.w3.org/1999/02/22-rdf-syntax-ns#"
   xmlns:svg="http://www.w3.org/2000/svg"
   xmlns="http://www.w3.org/2000/svg"
   xmlns:sodipodi="http://sodipodi.sourceforge.net/DTD/sodipodi-0.dtd"
   xmlns:inkscape="http://www.inkscape.org/namespaces/inkscape"
   width="1000"
   height="1000"
   viewBox="0 0 264.58333 1000"
   version="1.1"
   id="svg8"
   inkscape:version="0.92.4 (5da689c313, 2019-01-14)"
   sodipodi:docname="drawing.svg">
  <defs
     id="defs2" />
  <sodipodi:namedview
     id="base"
     pagecolor="#ffffff"
     bordercolor="#666666"
     borderopacity="1.0"
     inkscape:pageopacity="0.0"
     inkscape:pageshadow="2"
     inkscape:zoom="0.27527357"
     inkscape:cx="407.9301"
     inkscape:cy="484.93006"
     inkscape:document-units="mm"
     inkscape:current-layer="layer1"
     showgrid="false"
     units="px"
     inkscape:window-width="960"
     inkscape:window-height="487"
     inkscape:window-x="0"
     inkscape:window-y="0"
     inkscape:window-maximized="0" />
  <metadata
     id="metadata5">
    <rdf:RDF>
      <cc:Work
         rdf:about="">
        <dc:format>image/svg+xml</dc:format>
        <dc:type
           rdf:resource="http://purl.org/dc/dcmitype/StillImage" />
        <dc:title></dc:title>
      </cc:Work>
    </rdf:RDF>
  </metadata>
  <g
     inkscape:label="Layer 1"
     inkscape:groupmode="layer"
     id="layer1"
     transform="translate(0,703)">
    <circle
       style="fill:#004455;stroke-width:1.63313615"
       id="path3713"
       cx="133.61113"
       cy="-204.31946"
       r="501.31946" />
    <circle
       style="fill:#008080;stroke-width:1.12719309"
       id="path3715"
       cx="132.29167"
       cy="-203"
       r="466.80838" />
    <path
       sodipodi:type="spiral"
       style="fill:none;fill-rule:evenodd;stroke:#000000"
       id="path3873"
       sodipodi:cx="135.92436"
       sodipodi:cy="-199.36728"
       sodipodi:expansion="1"
       sodipodi:revolution="32.574142"
       sodipodi:radius="473.33438"
       sodipodi:argument="-17.278759"
       sodipodi:t0="0"
       d="m 135.92436,-199.36728 c 0,2.18568 -2.94625,1.07834 -3.63274,0 -1.86035,-2.92223 0.81818,-6.36959 3.63275,-7.26549 5.0346,-1.60256 9.87949,2.4648 10.89823,7.2655 1.49504,7.04522 -4.11878,13.45199 -10.89825,14.53098 -9.03596,1.43811 -17.04867,-5.77342 -18.16372,-14.531 -1.40317,-11.02053 7.42787,-20.65736 18.16375,-21.79647 13.00257,-1.37961 24.2729,9.08215 25.42921,21.7965 1.36266,14.98341 -10.73629,27.89273 -25.42925,29.06195 -16.9636,1.34991 -31.51543,-12.39033 -32.69469,-29.06199 -1.33996,-18.9434 14.04432,-35.14013 32.69473,-36.32744 20.92295,-1.33199 38.7663,15.69827 39.96019,36.32748 1.32545,22.90234 -17.35219,42.39356 -39.96023,43.59294 -24.88162,1.31999 -46.021656,-19.00611 -47.22568,-43.59299 -1.315378,-26.86081 20.66,-49.65041 47.22573,-50.85842 28.83995,-1.31141 53.27971,22.31388 54.49117,50.85848 1.30798,30.81904 -23.96776,56.90944 -54.49123,58.12391 -32.7981,1.30498 -60.539519,-25.62163 -61.756655,-58.12398 -1.302321,-34.77712 27.275505,-64.16989 61.756725,-65.38939 36.75613,-1.29996 67.80052,28.92937 69.02214,65.38947 1.29785,38.73512 -30.58324,71.43136 -69.02222,72.65489 -40.714098,1.29594 -75.062377,-32.23711 -76.28763,-72.65497 -1.294225,-42.69306 33.890976,-78.69356 76.28772,-79.92038 44.67201,-1.29266 82.32486,35.54484 83.55312,79.92047 1.29123,46.65096 -37.19871,85.9563 -83.55322,87.18586 -48.629895,1.28992 -89.587834,-38.85257 -90.818605,-87.18596 -1.288713,-50.60883 40.506435,-93.21947 90.818715,-94.45135 52.58775,-1.2876 96.85118,42.1603 98.08409,94.45146 1.28657,54.56667 -43.81416,100.482963 -98.08421,101.716837 -56.545591,1.285611 -104.114814,-45.468027 -105.34958,-101.716957 -1.284719,-58.52451 47.121894,-107.74673 105.34971,-108.98233 60.50341,-1.28388 111.37869,48.77576 112.61507,108.98246 1.2831,62.48232 -50.42963,115.010706 -112.61521,116.247812 C 71.463062,-81.83702 17.281526,-135.20289 16.043734,-199.36735 c -1.281691,-66.44013 53.737357,-122.27487 119.880706,-123.5133 68.41903,-1.28105 125.907,55.39122 127.14604,123.51345 1.28044,70.39793 -57.04509,129.539169 -127.1462,130.778788 C 63.547452,-67.308552 2.7529106,-127.28737 1.5127493,-199.36736 0.23343315,-273.72309 61.865571,-336.17096 135.92444,-337.41164 c 76.33463,-1.2788 140.43586,62.00669 141.67703,138.04444 1.27831,78.31352 -63.66056,144.068146 -141.67719,145.309773 -80.292415,1.277846 -147.700448,-65.314423 -148.942516,-145.309943 -1.277403,-82.2713 66.968291,-151.33277 148.942686,-152.57525 84.2502,-1.27699 154.96511,68.62216 156.208,152.57543 1.27658,86.22909 -70.27602,158.597478 -156.20818,159.840748 -88.207976,1.276196 -162.229856,-71.929898 -163.473491,-159.840938 -1.27583,-90.18686 73.583762,-165.86224 163.473681,-167.10623 92.16575,-1.27548 169.49466,75.23763 170.73898,167.10643 1.27514,94.14464 -76.8915,173.127085 -170.73918,174.371723 -96.123524,1.274821 -176.759521,-78.545363 -178.004466,-174.371923 -1.274512,-98.10241 80.199237,-180.39197 178.004676,-181.63721 100.08129,-1.27422 184.02443,81.8531 185.26995,181.63742 1.27393,102.06018 -83.50697,187.656903 -185.27017,188.902698 C 31.885186,-9.1908156 -55.365135,-95.625316 -56.611191,-199.36739 -57.884584,-305.38534 30.203522,-394.28927 135.92448,-395.53558 243.92131,-396.80872 334.47886,-307.067 335.72541,-199.36716 336.9983,-89.391446 245.60296,2.8197277 135.92424,4.0665134 23.969643,5.3391705 -69.895165,-87.709808 -71.142177,-199.3674 c -1.272429,-113.93348 93.430192,-209.45193 207.066667,-210.69916 115.91236,-1.27221 213.08446,95.08406 214.3319,210.69941 1.272,117.891243 -96.73793,216.717005 -214.33216,217.964649 C 16.054106,19.869289 -84.425321,-79.794303 -85.673162,-199.36741 -86.944753,-321.21642 14.37251,-423.34952 135.9245,-424.59755 c 123.82789,-1.2714 227.61466,101.69954 228.86288,225.23041 C 366.05859,-73.560372 261.43397,31.88009 135.92422,33.128484 8.1385723,34.399515 -98.95558,-71.878799 -100.20415,-199.36742 -101.475,-329.13195 6.4570061,-437.8798 135.9245,-439.12853 c 131.74342,-1.27069 242.14497,108.31502 243.39386,239.7614 C 380.58889,-65.644841 269.34947,46.410413 135.92422,47.659469 0.22304212,48.92983 -113.48592,-63.963296 -114.73513,-199.36743 c -1.27021,-137.68005 113.2766336,-253.04273 250.65964,-254.29209 139.65894,-1.27005 256.67534,114.93051 257.92484,254.29239 C 395.11926,-57.729313 277.26497,60.940811 135.92421,62.190454 -7.6924853,63.460219 -128.01634,-56.047794 -129.26612,-199.36744 -130.53574,-344.96301 -9.3739979,-466.94059 135.92452,-468.1905 283.49897,-469.46 407.13029,-346.64451 408.38033,-199.36712 409.64969,-49.813787 285.18047,75.471271 135.9242,76.721439 -15.608011,77.990671 -142.54681,-48.132293 -143.7971,-199.36744 c -1.26911,-153.51109 126.507602,-282.10364 279.72163,-283.35405 155.48997,-1.26898 285.73626,128.16148 286.98679,283.35438 1.26887,157.468846 -129.81535,289.368894 -286.98713,290.619534 -159.447724,1.268751 -293.00153,-131.469218 -294.25228,-290.619874 -1.26863,-161.42661 133.123092,-296.63417 294.25263,-297.88503 163.40548,-1.26852 300.2668,134.77697 301.51776,297.88538 1.26842,165.384358 -136.43083,303.89944 -301.51812,305.15051 -167.363235,1.26831 -307.53209,-138.084704 -308.78325,-305.15087 -1.26821,-169.34212 139.738573,-311.16474 308.78362,-312.416 171.32099,-1.26811 314.79738,141.39245 316.04874,312.41637 1.26801,173.299869 -143.04632,318.43003 -316.04912,319.68148 -175.278746,1.26792 -322.06268,-144.700186 -323.31423,-319.68186 -1.26782,-177.25763 146.354064,-325.69534 323.31462,-326.94698 179.2365,-1.26773 329.32799,148.00794 330.57971,326.94737 1.26765,181.215378 -149.6618,332.96065 -330.58011,334.21246 -183.194255,1.26756 -336.59331,-151.315678 -337.8452,-334.21286 -1.26747,-185.17314 152.969547,-340.22598 337.8456,-341.47795 187.15202,-1.26739 343.85865,154.62342 345.1107,341.47836 1.2673,189.130887 -156.27729,347.4913 -345.1111,348.74344 -191.109773,1.26722 -351.12398,-157.9311705 -352.37619,-348.74386 -1.26714,-193.08864 159.585039,-354.75664 352.3766,-356.00893 195.06753,-1.26706 358.38932,161.23891 359.64168,356.00935 1.26699,197.0464043 -162.89279,362.02199 -359.6421,363.27442 -199.02528,1.26692 -365.65466,-164.54665359 -366.90716,-363.27485 -1.26685,-201.00415 166.200523,-369.28733 366.90759,-370.5399 202.98303,-1.26677 372.92001,167.8544 374.17265,370.54034 C 511.36393,5.5948509 340.58896,177.18563 135.92414,178.43834 -71.016647,179.70497 -244.26123,7.2761929 -245.514,-199.3675 c -1.26656,-208.91967 172.816016,-383.81805 381.43859,-385.07089 210.89854,-1.2665 387.45073,174.46989 388.70363,385.07134 1.26643,212.877417 -176.12376,391.08341 -388.70409,392.33637 -214.856293,1.26637 -394.7161,-177.777631 -395.96911,-392.33683 -1.26631,-216.83517 179.4315,-398.34879 395.96958,-399.60186 218.81404,-1.26625 401.98147,181.08537 403.2346,399.60233 1.26619,220.792922 -182.73925,405.61415 -403.23508,406.86735 -222.771798,1.26612 -409.24684,-184.393125 -410.50009,-406.86783 -1.26607,-224.75068 186.046994,-412.87953 410.50058,-414.13284 226.72955,-1.26601 416.51222,187.70087 417.76558,414.13333 1.26595,228.708427 -189.35474,420.14491 -417.76608,421.39832 -230.687303,1.2659 -423.7776,-191.00861 -425.03106,-421.39882 -1.26585,-232.66618 192.662479,-427.4103 425.03157,-428.66381 234.64505,-1.26579 431.04299,194.31635 432.29655,428.66432 1.26574,236.623931 -195.97023,434.67568 -432.29707,435.9293 -238.60281,1.26568 -438.30838,-197.624104 -439.56204,-435.92982 -1.26563,-240.58169 199.27797,-441.94108 439.56256,-443.19479 242.56057,-1.26558 445.57378,200.93185 446.82754,443.19532 1.26553,244.539435 -202.58572,449.20647 -446.82806,450.46027 -246.51832,1.26549 -452.83918,-204.23959 -454.09302,-450.46081 -1.26544,-248.49719 205.89346,-456.47187 454.09355,-457.72576 250.47607,-1.26539 460.10457,207.54733 461.35851,457.7263 1.26535,252.454949 -209.20121,463.73728 -461.35905,464.99126 -254.43382,1.2653 -467.36998,-210.855085 -468.624,-464.99181 -1.26525,-256.41269 212.50895,-471.00267 468.62455,-472.25674 73.49803,-0.35988 146.78819,16.66901 212.61377,49.36141" />
    <flowRoot
       xml:space="preserve"
       id="flowRoot3719"
       style="font-style:normal;font-weight:normal;font-size:40px;line-height:1.25;font-family:sans-serif;letter-spacing:0px;word-spacing:0px;fill:#00ffff;fill-opacity:1;stroke:none"
       transform="matrix(1.3321375,0,-0.248935,1.3321375,-500.11647,-701.94534)"><flowRegion
         id="flowRegion3721"
         style="fill:#00ffff"><rect
           id="rect3723"
           width="951.78046"
           height="363.27499"
           x="228.86324"
           y="208.06055"
           style="fill:#00ffff" /></flowRegion><flowPara
         id="flowPara3725"
         style="font-size:320px;fill:#00ffff">NFL</flowPara></flowRoot>  </g>
</svg>
