<?xml version="1.0" encoding="UTF-8" standalone="no"?>
<!-- Created with Inkscape (http://www.inkscape.org/) -->

<svg
   xmlns:dc="http://purl.org/dc/elements/1.1/"
   xmlns:cc="http://creativecommons.org/ns#"
   xmlns:rdf="http://www.w3.org/1999/02/22-rdf-syntax-ns#"
   xmlns:svg="http://www.w3.org/2000/svg"
   xmlns="http://www.w3.org/2000/svg"
   xmlns:sodipodi="http://sodipodi.sourceforge.net/DTD/sodipodi-0.dtd"
   xmlns:inkscape="http://www.inkscape.org/namespaces/inkscape"
   width="1000"
   height="1000"
   viewBox="0 0 264.58333 1000"
   version="1.1"
   id="svg8"
   inkscape:version="0.92.4 (5da689c313, 2019-01-14)"
   sodipodi:docname="drawing.svg"
   inkscape:export-filename="/home/vagrant/Desktop/newlogo.png"
   inkscape:export-xdpi="96"
   inkscape:export-ydpi="96">
  <defs
     id="defs2" />
  <sodipodi:namedview
     id="base"
     pagecolor="#ffffff"
     bordercolor="#666666"
     borderopacity="1.0"
     inkscape:pageopacity="0.0"
     inkscape:pageshadow="2"
     inkscape:zoom="0.38929562"
     inkscape:cx="212.14753"
     inkscape:cy="549.81654"
     inkscape:document-units="mm"
     inkscape:current-layer="layer1"
     showgrid="false"
     units="px"
     inkscape:window-width="960"
     inkscape:window-height="487"
     inkscape:window-x="0"
     inkscape:window-y="0"
     inkscape:window-maximized="0" />
  <metadata
     id="metadata5">
    <rdf:RDF>
      <cc:Work
         rdf:about="">
        <dc:format>image/svg+xml</dc:format>
        <dc:type
           rdf:resource="http://purl.org/dc/dcmitype/StillImage" />
        <dc:title />
      </cc:Work>
    </rdf:RDF>
  </metadata>
  <g
     inkscape:label="Layer 1"
     inkscape:groupmode="layer"
     id="layer1"
     transform="translate(0,703)">
    <circle
       style="fill:#004455;stroke-width:1.63313615"
       id="path3713"
       cx="133.61113"
       cy="-204.31946"
       r="501.31946" />
    <circle
       style="fill:#008080;stroke-width:1.12719309"
       id="path3715"
       cx="132.29167"
       cy="-203"
       r="466.80838" />
    <path
       sodipodi:type="spiral"
       style="fill:none;fill-rule:evenodd;stroke:#000000;stroke-width:0.99274868"
       id="path3873"
       sodipodi:cx="135.89803"
       sodipodi:cy="-199.39362"
       sodipodi:expansion="1"
       sodipodi:revolution="32.574142"
       sodipodi:radius="469.90207"
       sodipodi:argument="-17.278759"
       sodipodi:t0="0"
       d="m 135.89803,-199.39362 c -1e-5,2.16984 -2.9249,1.07052 -3.60641,0 -1.84686,-2.90104 0.81225,-6.3234 3.60641,-7.2128 4.99809,-1.59094 9.80786,2.44692 10.81921,7.21281 1.48419,6.99413 -4.08892,13.35445 -10.81922,14.42561 -8.97044,1.42768 -16.92506,-5.73155 -18.03201,-14.42563 -1.393,-10.94061 7.37401,-20.50756 18.03203,-21.63841 12.90829,-1.3696 24.09689,9.01629 25.24481,21.63844 1.35279,14.87477 -10.65843,27.69047 -25.24484,28.85122 -16.84059,1.34012 -31.2869,-12.30049 -32.45762,-28.85125 -1.33024,-18.80604 13.94248,-34.88532 32.45766,-36.06403 20.77123,-1.32232 38.48518,15.58444 39.67042,36.06407 1.31584,22.73626 -17.22637,42.08614 -39.67047,43.27682 -24.70119,1.31043 -45.687934,-18.86828 -46.883226,-43.27687 -1.30584,-26.66604 20.510186,-49.29039 46.883286,-50.48963 28.63081,-1.30191 52.89336,22.15207 54.09603,50.48969 1.29849,30.59556 -23.79397,56.49676 -54.0961,57.70243 -32.56026,1.29551 -60.100523,-25.43585 -61.308832,-57.7025 -1.292878,-34.52495 27.077722,-63.70458 61.308902,-64.91524 36.4896,-1.29053 67.30888,28.7196 68.52164,64.91531 1.28844,38.45424 -30.36147,70.91339 -68.52172,72.12804 -40.418862,1.28655 -74.51807,-32.00334 -75.734438,-72.12812 -1.28484,-42.38348 33.64522,-78.12292 75.734528,-79.34084 44.34808,-1.28329 81.7279,35.28709 82.94725,79.34093 1.28186,46.31268 -36.92897,85.333 -82.94735,86.55365 -48.277259,1.28057 -88.938198,-38.57084 -90.160044,-86.55375 -1.279369,-50.24184 40.212709,-92.5435 90.160154,-93.76645 52.20642,-1.27826 96.14888,41.85458 97.37285,93.76656 1.27724,54.171 -43.49645,99.754329 -97.37296,100.979256 C 79.762405,-97.138016 32.538122,-143.55263 31.31231,-199.39368 30.036907,-257.4938 78.092507,-306.3591 135.89809,-307.58574 c 60.06469,-1.27457 110.57105,48.42207 111.79846,108.19219 1.2738,62.02924 -50.06394,114.176727 -111.79859,115.404862 C 71.904157,-82.71561 18.115509,-135.6945 16.886694,-199.39369 15.614297,-265.35204 70.234382,-320.7819 135.8981,-322.01135 c 67.9229,-1.27176 124.99401,54.98956 126.22407,122.61781 1.27115,69.88745 -56.63144,128.599839 -126.22422,129.830468 C 64.045945,-68.292492 3.6922464,-127.83638 2.4610779,-199.39369 1.1910385,-273.21025 62.376261,-335.20529 135.89811,-336.43697 c 75.78109,-1.26952 139.41751,61.55706 140.64967,137.04344 1.26904,77.74564 -63.19893,143.02345 -140.64984,144.256074 -79.710183,1.26858 -146.629417,-64.840804 -147.862478,-144.256244 -1.268141,-81.67473 66.48268,-150.23541 147.862658,-151.46888 83.63926,-1.26773 153.8414,68.12455 155.07528,151.46906 1.26732,85.6038 -69.76643,157.447425 -155.07547,158.68168 -87.568345,1.266942 -161.053467,-71.40831 -162.288084,-158.68187 -1.266578,-89.53289 73.050181,-164.65953 162.288274,-165.89449 91.49743,-1.26623 168.2656,74.69206 169.50089,165.89468 1.2659,93.46197 -76.33393,171.871683 -169.50109,173.107296 -95.426495,1.265576 -175.477773,-77.975806 -176.71369,-173.107496 -1.26527,-97.39103 79.617684,-179.08389 176.7139,-180.3201 99.35557,-1.26497 182.69001,81.25957 183.9265,180.32031 1.26469,101.320109 -82.90144,186.296141 -183.92672,187.532902 -103.284636,1.26442 -189.902275,-84.543313 -191.139296,-187.533122 -1.264158,-105.24917 86.18519,-193.50843 191.139526,-194.7457 107.21371,-1.26391 197.11459,87.82707 198.3521,194.74593 C 335.51391,-90.215255 244.7813,1.3272628 135.89791,2.5650076 24.755129,3.8284363 -68.429033,-88.545812 -69.667002,-199.39374 c -1.263202,-113.10731 92.752697,-207.93312 205.565152,-209.17131 115.07184,-1.26298 211.53932,94.39458 212.77771,209.17156 C 349.93863,-82.357115 252.63941,15.752027 135.8979,16.990624 16.89699,18.253192 -82.853826,-80.687705 -84.092618,-199.39375 -85.354989,-320.35919 15.227588,-421.75168 135.89816,-422.99066 258.82813,-424.25284 361.86231,-322.02858 363.10148,-199.39348 364.36347,-74.498978 260.49752,30.176898 135.89789,31.41624 9.0388548,32.678055 -97.27872,-72.829599 -98.518234,-199.39375 -99.779875,-328.21732 7.3694822,-436.1766 135.89817,-437.41628 266.68626,-438.67775 376.28725,-329.88669 377.52709,-199.39347 378.7884,-66.640846 268.35562,44.601857 135.89788,45.841855 1.1807229,47.103005 -111.7037,-64.971494 -112.94385,-199.39376 c -1.261,-136.68169 112.45522773,-251.20784 248.84202,-252.44813 138.64622,-1.26085 254.8141,114.0971 256.05454,252.44843 C 393.21341,-58.782716 276.21373,59.02689 135.89787,60.267471 -6.6774063,61.528029 -126.12875,-57.11339 -127.36947,-199.39377 c -1.26042,-144.53981 119.0227443,-265.63289 263.26765,-266.87374 146.50434,-1.26029 269.23917,120.66462 270.48014,266.87405 1.26016,148.468872 -122.30649,272.845445 -270.48046,274.086547 -150.433393,1.260028 -276.45172,-123.948375 -277.69294,-274.086867 -1.25991,-152.39793 125.590252,-280.058 277.69327,-281.29935 154.36246,-1.25978 283.66429,127.23214 284.90575,281.29968 1.25967,156.326987 -128.87401,287.270582 -284.90609,288.512153 -158.291508,1.25955 -290.87687,-130.515889 -292.11855,-288.512493 -1.25944,-160.25604 132.15777,-294.48316 292.1189,-295.72495 162.22057,-1.25933 298.08946,133.79964 299.33136,295.7253 1.25922,164.185101 -135.44153,301.69576 -299.33171,302.93776 -166.149632,1.25912 -305.30207,-137.083405 -306.54416,-302.93812 -1.25902,-168.11415 138.725279,-308.90837 306.54452,-310.15056 170.07868,-1.25891 312.51468,140.36716 313.75696,310.15093 1.25882,172.043213 -142.00904,316.12099 -313.75733,317.36337 -174.007744,1.25872 -319.7273,-143.650924 -320.96977,-317.36375 -1.25863,-175.97227 145.292799,-323.33361 320.97015,-324.57616 177.9368,-1.25854 326.93992,146.93467 328.18257,324.57655 1.25845,179.901325 -148.57656,330.54624 -328.18296,331.78897 -181.865855,1.25837 -334.15256,-150.218434 -335.39538,-331.78936 -1.25827,-183.83039 151.860319,-337.75889 335.39578,-339.00178 185.79491,-1.2582 341.3652,153.50219 342.60817,339.00218 1.25812,187.759435 -155.14407,344.97153 -342.60858,346.21458 -189.723965,1.25803 -348.57785,-156.7859548 -349.82098,-346.21499 -1.25796,-191.6885 158.42783,-352.18418 349.82139,-353.42739 193.65303,-1.25788 355.79052,160.06971 357.03379,353.42781 1.2578,195.6175442 -161.71159,359.39684 -357.03421,360.64018 -197.582074,1.25773 -363.00317,-163.3534658 -364.24659,-360.64061 -1.25765,-199.5466 164.995351,-366.60951 364.24702,-367.85299 201.51113,-1.25759 370.21584,166.63723 371.4594,367.85342 C 508.61515,4.0822627 339.07853,174.42878 135.8978,175.6724 -69.542382,176.92985 -241.53071,5.7514127 -242.77439,-199.39384 c -1.25738,-207.40471 171.562863,-381.03485 378.67264,-382.2786 209.36924,-1.25731 384.64119,173.20475 385.885,382.27905 1.25725,211.33377 -174.84662,388.24753 -385.88546,389.49141 -213.29829,1.25718 -391.85387,-176.488509 -393.0978,-389.49187 -1.25712,-215.26282 178.130385,-395.46022 393.09827,-396.7042 217.22735,-1.25707 399.06656,179.77226 400.31061,396.70467 1.257,219.191878 -181.41414,402.67291 -400.31108,403.91701 -221.156407,1.25695 -406.27926,-183.056021 -407.52342,-403.91749 -1.25688,-223.12093 184.697907,-409.8856 407.5239,-411.12981 225.08546,-1.25683 413.49195,186.33978 414.73621,411.1303 1.25678,227.049984 -187.98166,417.0983 -414.7367,418.34262 -229.014514,1.25672 -420.70465,-189.623544 -421.94902,-418.34312 -1.25667,-230.97903 191.265419,-424.31099 421.94952,-425.55542 232.94356,-1.25661 427.91735,192.9073 429.16182,425.55593 1.25656,234.90809 -194.54918,431.5237 -429.16233,432.76822 -236.87262,1.25651 -435.13006,-196.191057 -436.37463,-432.76873 -1.25645,-238.83715 197.83294,-438.73641 436.37515,-439.98103 240.80167,-1.25641 442.34276,199.47482 443.58743,439.98155 1.25635,242.766196 -201.1167,445.94912 -443.58796,447.19383 -244.73073,1.25631 -449.55548,-202.75858 -450.80023,-447.19436 -1.25627,-246.69526 204.40046,-453.16184 450.80076,-454.40664 248.65978,-1.25621 456.7682,206.04234 458.01304,454.40718 1.25617,250.624302 -207.68422,460.37455 -458.01358,461.61943 -252.58883,1.25613 -463.98091,-209.326093 -465.22584,-461.61998 -1.25608,-254.55336 210.96798,-467.58727 465.22639,-468.83224 72.96507,-0.35728 145.72378,16.54813 211.07204,49.00346" />
    <flowRoot
       xml:space="preserve"
       id="flowRoot3913"
       style="fill:black;fill-opacity:1;stroke:none;font-family:sans-serif;font-style:normal;font-weight:normal;font-size:40px;line-height:1.25;letter-spacing:0px;word-spacing:0px"><flowRegion
         id="flowRegion3915"><rect
           id="rect3917"
           width="863.09729"
           height="349.34891"
           x="113.02465"
           y="344.97079" /></flowRegion><flowPara
         id="flowPara3919" /></flowRoot>    <path
       style="fill:#164450"
       id="path4116"
       d="m -194.23232,-541.96833 c 1.30278,7.1249 4.05344,13.80834 7.35849,20.2128 3.82872,6.00565 8.33051,11.2074 14.10635,15.37826 4.90601,4.75639 10.74076,6.93253 17.33878,8.03169 6.97953,0.83428 14.026,0.75487 21.04313,0.7521 8.00378,0.20972 15.85673,0.0539 23.75103,-1.24197 7.70078,-0.47683 14.75089,-3.28919 21.95552,-5.75861 6.91954,-2.1219 13.54344,-5.12649 20.30255,-7.72571 8.25975,-3.47853 33.37994,-17.8581 -0.3146,1.34133 6.87822,-4.07963 13.20365,-9.00663 19.57388,-13.82114 5.58721,-3.79723 10.07188,-8.92379 13.50234,-14.70786 2.05097,-4.78835 4.40631,-10.76539 0.58759,-15.16491 -4.90019,-3.30428 -10.20946,-2.13939 -15.60209,-1.18034 -7.24798,2.75963 -18.80062,9.5974 11.33425,-7.10296 0.77931,-0.43189 -1.53594,0.90594 -2.27242,1.40739 -1.29386,0.88095 -2.89066,2.21483 -4.10215,3.19485 -4.43595,3.77401 -7.54214,8.77313 -11.1724,13.27107 -3.99098,5.3848 -7.53921,11.0548 -10.9478,16.81803 -3.58472,6.55904 -6.51143,13.48241 -8.49726,20.68941 -1.47973,6.37011 -2.43335,12.88011 -0.14903,19.1396 3.34001,4.78245 9.59947,4.83602 14.9045,5.21787 6.78456,0.89863 13.18329,-0.29542 19.76851,-1.6752 6.93099,-0.74283 13.45121,-2.96808 19.98705,-5.28251 7.80228,-2.07335 15.36297,-4.87071 22.98063,-7.55895 9.36617,-3.01603 18.44654,-6.84403 27.33,-11.05091 8.48744,-3.1618 16.22625,-7.85907 24.44859,-11.57441 6.15335,-3.76408 22.82521,-12.4613 -5.68185,3.12223 -1.49498,0.81724 2.93222,-1.73649 4.37849,-2.63714 3.16443,-1.97062 6.28574,-4.0098 9.44481,-5.98901 7.25021,-4.31953 13.4522,-9.65102 19.07356,-15.87993 4.81371,-4.86683 7.84811,-10.22395 9.57615,-16.80844 1.14169,-5.25171 -2.18179,-8.65248 -6.72622,-5.13099 31.53775,-17.50328 17.61079,-11.40199 12.17805,-5.89971 -2.61578,2.64927 -4.49889,5.59553 -6.42715,8.75761 -4.11514,7.52079 -7.41198,15.32539 -9.35287,23.67552 -1.43578,7.28139 -1.53911,14.72235 -1.62243,22.11582 -0.58445,7.14917 0.29729,12.97089 4.98285,18.50475 5.82934,5.41319 12.95065,7.38485 20.57992,8.69875 8.55953,1.16559 17.22124,1.1114 25.84176,1.13809 8.13691,-0.0136 16.27374,-0.0525 24.41064,-0.0704 8.7861,0.76715 16.94335,-1.54085 25.08564,-4.58218 8.69665,-2.96808 17.38428,-6.09011 25.49975,-10.43542 3.43538,-1.71972 6.86132,-3.28731 10.21179,-5.15606 0.94204,-0.52543 3.79888,-2.04467 2.86262,-1.509 -19.25027,11.01384 -19.59277,11.29853 -11.73874,6.40842 6.55628,-4.51384 12.12926,-10.46062 17.0999,-16.64683 3.58454,-5.7456 6.76693,-12.721 5.09312,-19.57689 -3.38651,-5.04466 -9.68315,-4.32654 -14.95406,-3.63419 4.3703,-3.60585 -14.02245,6.66967 -8.89836,3.79405 28.15865,-15.80255 17.11681,-10.23919 10.95368,-4.90498 -5.99189,5.22047 -9.61057,12.12547 -13.47085,18.90751 -4.00282,6.1878 -5.82764,13.0742 -6.74442,20.29064 -0.93243,6.18297 -0.63862,11.57898 3.35127,16.53782 5.09973,4.00757 11.98078,3.78105 18.15665,4.07251 8.04283,0.64196 15.99266,-0.73666 23.76337,-2.70882 9.33479,-2.27798 18.50059,-5.27343 27.31437,-9.10151 8.97344,-2.41293 39.05569,-19.42012 5.12694,-0.23367 11.95564,-7.40202 44.0881,-24.91509 8.16838,-4.77713 -1.71433,0.96112 3.32072,-2.10497 5.01926,-3.09372 7.09492,-4.13007 14.22058,-8.20709 21.33087,-12.31064 -32.89674,21.18182 -5.45467,1.69668 1.74105,-3.76654 6.94467,-5.36073 12.8378,-11.68367 18.4161,-18.39738 1.01331,-0.37671 6.98471,-11.4673 3.85851,-8.0789 27.63892,-16.66998 16.77941,-10.7694 10.51738,-0.32231 -2.84757,4.96154 -5.44482,10.06199 -7.62136,15.35574 -2.52918,7.47428 -5.10278,14.95847 -6.91259,22.64726 -1.78426,6.77421 -1.58042,13.36966 -0.39079,20.17269 1.57928,6.30647 6.29435,8.989 12.14142,10.6532 6.74613,2.64329 13.85999,3.77952 21.03178,4.44042 8.35819,0.65194 16.61982,-1.23881 24.63869,-3.37878 8.04884,-2.56793 16.1138,-4.82037 23.6928,-8.60983 1.11946,-0.50729 2.2569,-0.97664 3.35838,-1.52187 14.68573,-7.2694 -22.8932,13.45637 -8.41195,4.81751 1.17406,-0.7004 2.32507,-1.43948 3.50811,-2.12462 7.35202,-4.25784 14.73085,-8.46923 22.09627,-12.70384 -32.20249,19.44289 -7.32294,3.52814 -0.29402,-1.68928 5.87468,-4.05785 10.80439,-9.28525 15.37474,-14.72741 4.39173,-5.8633 9.01114,-11.66768 11.96349,-18.41311 0,0 19.7164,-9.10758 19.7164,-9.10758 v 0 c -2.65162,7.06613 -7.28983,12.95749 -11.71814,19.00233 -4.36901,5.63107 -9.34763,11.05496 -15.17547,15.1887 -11.26943,9.14727 -24.45042,15.86115 -36.75233,23.37812 5.00856,-2.92041 9.9895,-5.88868 15.02567,-8.76121 2.34263,-1.33619 -4.6116,2.79826 -6.94458,4.15123 -9.51816,5.51993 -18.66769,11.59101 -28.72612,16.03658 -7.73112,3.48217 -15.82977,5.84325 -23.93833,8.28147 -8.18514,2.07391 -16.63138,3.62045 -25.10568,2.76414 -7.27206,-0.80538 -14.43227,-2.18861 -21.29643,-4.80372 -6.41395,-2.24499 -11.4748,-5.78757 -13.36464,-12.67186 -1.26868,-7.05634 -1.7883,-13.88168 0.0175,-20.95259 1.70048,-7.81607 4.3714,-15.33862 6.75338,-22.96136 2.161,-5.41932 4.67404,-10.58471 7.44118,-15.70768 8.8625,-13.12109 5.44047,-11.58849 26.93985,-21.29139 5.99489,2.40935 1.21738,9.0607 -1.43535,12.46643 -5.75267,6.64052 -11.20454,13.45409 -18.26805,18.83772 -12.34378,9.53576 -24.27986,18.94026 -38.77515,25.44657 5.27103,-3.07228 10.50908,-6.20185 15.81309,-9.21682 1.70822,-0.97101 -3.3174,2.1085 -5.01467,3.09851 -7.02948,4.10025 -14.03077,8.24904 -21.08117,12.31321 -4.31178,2.48549 24.82019,-14.68201 12.90886,-7.50221 -13.91587,8.0733 -27.22245,16.18834 -42.39757,21.5068 -8.94569,3.6211 -18.13075,6.64884 -27.54007,8.82509 -7.94647,1.75244 -15.97804,2.99079 -24.14055,2.21042 -6.77899,-0.43104 -14.00139,-0.63585 -19.19801,-5.59902 -4.18878,-5.47125 -5.19231,-11.22333 -4.14266,-18.03767 0.79498,-7.4369 2.3305,-14.67491 6.37848,-21.10608 4.04465,-6.76705 7.21456,-14.07317 13.19966,-19.47806 9.56455,-9.64242 22.33021,-16.71445 35.47763,-20.0795 6.42116,-0.49119 13.01233,0.11885 16.61341,6.20498 2.1566,7.38893 -0.6244,14.85426 -4.25637,21.36764 -4.63817,6.54243 -10.60179,12.34243 -16.79607,17.3984 -12.6019,7.6389 -25.12242,15.44309 -38.49929,21.65159 -8.30041,4.0337 -16.92316,7.28221 -25.6703,10.20835 -8.3495,2.81093 -16.64914,4.7586 -25.53574,4.00209 -8.14002,0.0231 -16.28003,0.0743 -24.4201,0.0571 -8.70163,-0.0599 -17.4547,-0.0517 -26.06779,-1.45375 -8.00207,-1.59702 -15.46861,-4.06643 -21.41606,-9.95283 -4.87139,-5.98385 -6.42292,-12.1423 -5.71643,-19.84052 0.0604,-7.52373 0.12866,-15.08881 1.42967,-22.52288 1.79326,-8.5746 5.00136,-16.5384 9.07081,-24.29285 7.48867,-13.30913 15.87556,-18.12409 31.09693,-25.20886 6.34913,-1.50497 10.00346,3.05081 9.28184,9.27278 -1.5402,6.9301 -4.12674,12.67953 -9.12613,17.80721 -5.76675,6.197 -11.4052,12.19578 -18.89678,16.44899 -14.95396,9.18227 -29.71457,18.74739 -45.31582,26.83282 -8.12611,3.90987 -16.05019,8.2314 -24.44276,11.58233 -8.90707,4.18907 -18.11272,7.75735 -27.45034,10.8657 -7.61982,2.69287 -15.24894,5.34161 -23.014,7.57939 -6.58067,2.28771 -13.25985,4.12066 -20.17581,5.0643 -6.68202,1.37592 -13.31563,1.97078 -20.14012,1.15996 -6.20973,-0.64226 -12.6528,-1.50115 -16.21814,-7.27131 -2.57009,-6.63756 -1.96639,-13.48001 -0.44474,-20.33944 1.83955,-7.40943 4.77566,-14.45035 8.24107,-21.2433 3.47861,-5.80331 6.97328,-11.56852 10.78176,-17.15405 3.95894,-4.3302 6.82467,-9.50962 11.00542,-13.65959 9.89804,-7.57754 20.28868,-15.50359 32.58331,-18.63554 6.02004,-0.92414 11.94089,-1.13459 16.88746,3.06827 4.177,5.37415 2.92322,11.41915 0.58627,17.44896 -3.05562,6.10108 -7.60868,11.59254 -13.15215,15.58316 -6.46992,4.7028 -12.6353,9.84368 -19.47086,14.03478 -12.13832,6.96056 -24.11606,14.40751 -37.04059,19.86516 -6.72647,2.68846 -13.42862,5.49603 -20.34769,7.64918 -7.24501,2.52999 -14.48492,4.8258 -22.1924,5.45127 -7.95438,1.16927 -15.93043,1.02727 -23.95815,0.97505 -7.10116,-0.0214 -14.24665,0.0279 -21.28156,-1.07465 -6.77706,-1.41669 -12.75962,-4.04488 -17.87518,-8.85244 -5.91896,-4.4904 -10.6644,-9.92438 -14.61416,-16.22752 -3.38947,-6.53736 -6.24236,-13.36909 -7.64492,-20.63138 0,0 19.13548,-10.34808 19.13548,-10.34808 z"
       inkscape:connector-curvature="0" />
    <path
       style="fill:#164450"
       id="path4118"
       d="m -218.97193,109.6211 c 7.00409,3.05407 14.45546,4.64251 21.98531,5.69225 7.5127,0.88074 15.08603,0.93419 22.63972,0.98088 7.255,-0.21586 14.57815,0.53568 21.76801,-0.56799 7.58005,-0.77999 14.58077,-3.5364 21.62159,-6.24048 1.21978,-0.3985 2.46763,-0.7196 3.65935,-1.19551 2.1088,-0.84213 4.14189,-1.8661 6.17027,-2.88685 1.01449,-0.51053 3.9646,-2.21788 2.97735,-1.65648 -17.53459,9.97113 -20.35664,11.73688 -12.31213,6.83568 5.23274,-3.34254 9.23721,-8.20424 13.24767,-12.87025 3.87607,-5.10604 6.06216,-10.93397 7.40025,-17.13559 1.32282,-6.45686 1.57774,-12.26072 -3.56506,-16.90795 -4.14412,-4.32583 -9.0051,-6.11888 -14.87277,-5.60579 -0.69875,-0.75267 -8.26569,2.67933 -7.56481,2.26459 30.49081,-18.0425 18.21288,-10.86179 12.23951,-6.40395 -4.66644,3.35817 -7.95774,8.06824 -11.33252,12.63162 -4.41252,5.28822 -6.60951,11.44372 -7.85381,18.11063 -1.0135,7.09779 -0.98949,14.28715 -1.01718,21.44089 0.30756,5.93358 1.86047,10.8726 5.38665,15.56087 4.10698,4.80083 9.83633,6.39528 15.49192,8.53754 7.12473,2.76388 14.68547,3.48219 22.24056,3.9312 9.71934,0.93116 19.29856,-0.17403 28.91933,-1.42346 8.61062,-1.72468 16.89244,-4.60326 25.42053,-6.63005 8.62348,-2.34444 16.8022,-5.94628 25.18714,-8.98418 8.78036,-3.28565 17.06438,-7.51455 25.32337,-11.89719 12.45522,-7.28929 -5.34334,3.16081 -9.95067,5.49378 -1.49997,0.75952 2.7784,-1.89528 4.13385,-2.89003 3.82452,-2.80679 7.58534,-5.73047 11.27322,-8.71364 5.21128,-4.42108 10.9123,-8.41213 15.22875,-13.75308 4.2721,-4.62593 6.37095,-9.97377 7.47191,-16.06694 0.47406,-4.71726 -2.20266,-8.39191 -6.9682,-6.30045 -7.28622,3.09032 -8.05529,3.50179 14.78481,-8.53751 0.78797,-0.41536 -1.45257,1.03992 -2.10392,1.64751 -2.13071,1.98758 -3.93139,4.45657 -5.72762,6.73698 -3.93835,6.12038 -5.72862,13.34244 -7.19692,20.39201 -1.38937,7.54004 -1.60495,15.2169 -1.74118,22.8612 -0.57024,6.29286 1.33179,11.7677 4.42959,17.10389 3.79192,4.57383 8.69783,7.92232 14.4024,9.52809 10.07467,1.90209 20.43458,1.69245 30.65136,1.78611 11.45353,0.23545 22.82436,0.15715 34.20424,-1.16101 9.00858,-0.95189 17.65776,-3.94845 26.40764,-6.19384 8.75865,-3.37155 18.04399,-4.88424 26.82533,-8.13478 9.01396,-3.89923 18.41263,-6.93015 27.41182,-10.84924 8.35077,-3.40765 16.19672,-7.87186 24.05216,-12.2593 -5.04343,2.87977 -20.14804,11.56357 -15.13029,8.6393 37.49825,-21.85337 21.9907,-12.33908 6.3753,-3.83941 -6.43061,3.50026 5.93512,-4.15446 7.65064,-5.46442 1.40678,-1.46681 7.13571,-5.57773 1.30064,-4.274 1.02002,-1.95231 -8.15099,3.25734 -6.25108,2.14276 30.44698,-17.86168 18.36045,-10.59823 11.9624,-6.36948 -6.53044,4.38487 -11.64994,10.37096 -16.40331,16.55616 -4.77094,6.71724 -9.04644,13.72568 -13.2792,20.78643 -3.00997,5.9689 -5.18283,12.36493 -6.70513,18.86793 -1.39683,6.18338 -0.60239,12.75648 4.56887,16.83108 6.52981,3.26026 14.01332,3.92244 21.1836,3.24038 9.05402,-1.24369 18.12712,-1.95127 26.9601,-4.36464 10.12071,-2.55054 19.69165,-6.74856 29.58148,-9.99664 8.75419,-3.47316 17.44367,-6.9993 26.04669,-10.86404 7.50158,-3.29052 42.27335,-22.8287 8.3998,-3.46888 6.45635,-3.88599 12.38441,-8.48781 18.12353,-13.34456 4.58002,-3.70117 6.63167,-8.8104 6.76892,-14.59196 -1.35515,-5.54858 -7.6877,-5.71682 -12.42772,-6.21446 -6.85128,-0.60783 -13.55337,-0.60003 -20.26159,0.8929 1.66917,-2.63712 -11.86677,5.00616 -8.22293,2.85475 30.17486,-17.81588 18.05015,-10.44212 11.72043,-6.22249 -5.54195,3.56935 -10.27162,7.88477 -14.53717,12.87882 -4.73268,4.85188 -7.26455,11.22775 -9.47316,17.52233 -1.97559,5.70646 -1.7091,11.23098 1.53792,16.32768 4.23059,4.03744 10.4063,4.11527 15.92236,4.45852 7.91585,0.28417 15.84003,0.1799 23.7593,0.14355 8.31413,0.54999 16.34775,-0.38793 24.48958,-1.87052 7.37389,-0.87291 14.13231,-3.99348 21.12096,-6.27961 7.52411,-2.23946 15.17694,-4.47138 22.30813,-7.78701 7.31013,-3.79294 14.91562,-6.84257 22.07593,-10.93175 6.64976,-3.67077 21.27708,-10.59083 -9.09162,5.21835 -7.9312,4.12879 6.85228,-4.63417 8.23559,-5.56275 4.75701,-3.55748 7.80703,-8.24723 10.43511,-13.46536 2.08416,-4.7163 3.31197,-10.10545 -1.39027,-13.4279 -3.05638,-1.52458 -6.01315,-1.0578 -8.99224,0.30963 -0.75753,0.34772 -2.99723,1.4538 -2.27536,1.03707 5.48706,-3.16758 11.05305,-6.19643 16.57958,-9.29464 -4.27483,3.67046 -7.42023,8.37695 -9.85722,13.40958 -2.63072,6.43637 -3.00873,13.41176 -3.30543,20.27147 -0.21804,6.55775 -0.69585,13.15477 1.77278,19.35371 3.04902,4.75787 7.07751,6.83096 12.43825,8.02339 6.74882,1.05782 13.60856,0.98759 20.42095,1.00888 7.38818,0.58567 14.50798,-0.62004 21.74413,-1.85826 7.58022,-0.79048 14.52433,-4.04642 21.72405,-6.29065 1.19883,-0.47919 2.42255,-0.90027 3.59648,-1.43757 2.52434,-1.15539 12.62152,-6.85454 7.60817,-4.0548 -28.43699,15.88081 -13.81833,7.64454 -7.5315,3.24376 1.04564,-0.8669 2.09128,-1.73381 3.13692,-2.60071 0,0 20.10404,-8.16707 20.10404,-8.16707 v 0 c -1.02059,0.93492 -2.04118,1.86984 -3.06177,2.80476 -12.78887,9.19182 -26.27029,17.86508 -41.00708,23.5116 -7.1978,2.39656 -14.29718,5.25282 -21.91466,6.04589 -7.29615,1.23909 -14.55068,1.98654 -21.97063,1.55508 -6.92651,-0.054 -13.92691,-0.0148 -20.73922,-1.43352 -5.82301,-1.66492 -10.27418,-4.48097 -13.51433,-9.74439 -2.68255,-6.46739 -2.50143,-13.27823 -2.19003,-20.17926 0.24964,-7.08251 0.5712,-14.26514 2.93641,-21.01873 2.26882,-5.42205 5.53088,-10.08995 9.37157,-14.50975 9.15317,-5.34246 21.56781,-17.8852 33.33418,-11.5504 4.9677,4.3417 5.19943,10.03633 2.75602,16.00388 -2.49894,5.51237 -5.4152,10.44057 -10.00205,14.48155 -11.28849,8.42927 -23.86821,15.22902 -36.24774,21.94802 -7.26192,3.88417 -14.82341,7.10298 -22.19436,10.7678 -7.31057,2.99517 -14.86528,5.38515 -22.43227,7.64579 -6.98494,2.42964 -13.91861,5.12921 -21.31979,6.0263 -8.19657,1.44166 -16.37094,1.87741 -24.69962,1.55913 -7.95782,0.0309 -15.92576,0.16023 -23.87528,-0.27235 -6.19617,-0.54575 -12.67373,-1.19453 -17.03979,-6.14993 -3.48471,-5.58119 -4.42724,-11.67732 -2.407,-18.0429 2.04086,-6.3899 4.43995,-13.32037 9.14185,-18.22025 4.04402,-5.3032 8.73816,-9.76002 14.29978,-13.45358 10.37366,-7.46115 21.3602,-15.21096 34.03877,-17.70055 6.84265,-1.2395 13.76932,-0.98647 20.67591,-0.32155 6.00372,0.88634 12.2546,2.22273 14.04555,8.86719 0.27679,6.10208 -1.4313,12.06832 -5.96705,16.36502 -5.90132,4.71462 -11.5013,9.78656 -18.03103,13.68807 -15.00721,8.62145 -29.94649,17.35257 -45.62824,24.70965 -8.62896,3.83504 -17.35924,7.35077 -26.18325,10.70748 -9.85252,3.39432 -19.522,7.37285 -29.66882,9.86038 -8.94679,2.13115 -18.09719,2.99349 -27.22274,4.05649 -7.63595,0.25971 -15.50711,-0.49978 -22.145,-4.61327 -5.34407,-4.89076 -7.17474,-11.78117 -5.69277,-18.88956 1.40596,-6.71671 3.64306,-13.21625 6.41637,-19.48526 4.1441,-7.17537 8.57965,-14.13242 13.20336,-21.007 4.59055,-6.39044 9.73569,-12.51382 16.1017,-17.20764 9.7619,-6.95277 19.97629,-15.3618 32.11142,-16.51119 5.61901,0.92773 5.41166,5.91858 1.29114,9.04471 -9.62358,7.00105 -18.15829,11.53429 -29.14737,18.34091 -0.27245,0.16875 53.24908,-31.04259 -6.81996,3.98334 -7.84348,4.43315 -15.83933,8.6467 -24.1903,12.05199 -9.12025,3.68799 -18.34721,7.13404 -27.4943,10.75114 -8.88466,2.96822 -18.09367,4.85333 -26.93531,7.99102 -8.77232,2.32071 -17.49618,5.16562 -26.58298,5.9325 -11.42651,1.19928 -22.86457,1.10933 -34.34584,0.94234 C 44.98439,147.0817 34.41137,147.32478 24.27063,144.9193 18.25159,142.79067 12.96372,139.10986 9.00977,134.04418 5.73303,128.4173 3.49542,122.5497 4.0336,115.8958 4.14593,108.13777 4.32372,100.35004 5.60846,92.67935 7.00265,85.37092 8.85059,78.01602 12.37927,71.41789 19.78477,61.018 29.32242,52.87431 42.70937,49.83095 c 5.95092,-0.16026 9.28014,4.0166 9.14609,9.89498 -0.92754,6.29839 -2.51313,12.25407 -7.0412,17.00068 -3.91369,5.79891 -9.72675,9.8143 -15.05286,14.24636 -12.91533,11.0619 -27.41138,19.88128 -42.46803,27.81301 -8.2691,4.40978 -16.72545,8.38206 -25.5121,11.67077 -8.37444,3.13692 -16.64751,6.59548 -25.33856,8.79623 -8.51348,2.17554 -16.87028,4.98751 -25.56388,6.4261 -9.7024,1.21467 -19.39799,2.01149 -29.17747,1.09384 -7.70999,-0.56172 -15.37834,-1.54512 -22.61575,-4.44054 -6.03898,-2.22324 -11.91943,-4.45061 -16.17228,-9.57321 -3.79753,-5.08836 -5.54184,-10.41696 -6.04175,-16.80142 0.0134,-7.25962 -0.0211,-14.54608 0.85189,-21.76518 1.0884,-6.87601 2.90461,-13.50466 7.43628,-18.9886 3.219,-4.70664 6.56121,-9.62594 11.11235,-13.13091 8.88641,-8.44169 20.65603,-15.6585 33.01496,-16.84496 6.22676,0.0958 11.47963,2.5447 15.83207,7.04675 5.38437,5.38932 6.0948,11.49275 4.60547,18.82761 -1.20469,6.50481 -3.25202,12.54203 -6.94756,18.09166 -3.8213,4.92688 -8.13011,9.67238 -12.98492,13.5763 -12.30448,7.24167 -24.17094,15.6136 -37.82992,20.10778 -7.10929,2.72537 -14.32295,5.07 -21.9493,5.82082 -7.28823,0.66474 -14.62205,0.24914 -21.93392,0.34126 -7.61474,-0.0795 -15.25195,-0.19567 -22.80937,-1.23175 -7.58227,-1.19953 -14.97433,-3.07098 -22.14907,-5.83553 0,0 17.90753,-12.3519 17.90753,-12.3519 z"
       inkscape:connector-curvature="0" />
    <path
       style="fill:#00ffff"
       id="path70"
       d="m -84.518,-364.75699 c -3.76504,3.47826 -6.61393,7.8648 -9.56358,12.03564 -2.91237,3.44115 -5.50402,7.12808 -8.08761,10.8153 -2.30944,4.55364 -5.43668,8.59493 -8.60894,12.57186 -3.78193,4.99631 -7.30997,10.17576 -10.96373,15.2661 -3.41028,5.35295 -6.27268,10.99083 -9.74877,16.30402 -3.59057,5.38097 -6.92378,10.94157 -10.8916,16.055 -4.29545,5.61823 -8.03256,11.63871 -12.28082,17.28813 -4.06804,5.32915 -7.82845,10.8839 -11.63598,16.40021 -3.20836,4.99724 -6.68958,9.78754 -10.29105,14.50209 -4.51598,5.49492 -8.49559,11.39388 -12.73816,17.09625 -3.40661,4.88018 -6.98629,9.61221 -10.75546,14.21418 -3.21792,4.22868 -6.54816,8.35892 -9.89021,12.48736 -3.82563,4.66959 -7.7963,9.21651 -11.64726,13.8652 -3.70159,3.60139 -6.33034,8.06387 -9.58463,12.02363 -3.03588,3.80597 -5.84745,7.77558 -8.7072,11.71534 -2.98631,2.90567 -4.93657,6.62271 -7.63005,9.75983 -1.24906,1.39421 -2.0479,3.06362 -3.12797,4.58383 0,0 -48.63307,21.47558 -48.63307,21.47558 v 0 c 0.96023,-1.77681 2.33932,-3.09151 2.94323,-5.0532 4.20491,-6.24287 -1.94169,2.60418 2.50401,-2.93297 1.86843,-2.32716 3.16999,-5.03358 5.11122,-7.31898 3.659,-3.19115 5.82266,-7.67574 8.89623,-11.38274 0.50261,-0.67457 1.00522,-1.34913 1.50783,-2.0237 0.58635,-0.58783 1.23558,-1.11904 1.75907,-1.76349 2.25373,-2.77445 3.62503,-6.2482 6.30092,-8.72373 4.29703,-4.10321 7.68359,-8.99098 11.62488,-13.42673 3.34889,-4.2325 7.04676,-8.13523 10.05542,-12.62198 3.79568,-4.63651 7.77994,-9.10597 11.07257,-14.12377 4.26196,-5.56095 8.3708,-11.20604 12.33141,-16.98659 3.70748,-4.74127 7.69339,-9.26181 10.79418,-14.44164 3.86572,-5.46891 7.41233,-11.16731 11.48481,-16.48828 4.17395,-5.74951 8.55624,-11.34609 12.32348,-17.39412 3.83183,-5.11595 7.71596,-10.18385 10.90103,-15.75584 3.68507,-5.1718 6.91914,-10.5548 9.73439,-16.25137 3.34439,-5.35218 7.29066,-10.25056 10.83011,-15.46222 2.72875,-4.02753 6.04275,-7.65561 8.54784,-11.78825 1.90676,-4.35799 5.1593,-7.85472 7.78973,-11.79724 3.56906,-3.60038 6.21532,-8.03321 8.93534,-12.28608 0,0 49.33839,-20.43663 49.33839,-20.43663 z"
       inkscape:connector-curvature="0" />
    <path
       style="fill:#00ffff"
       id="path72"
       d="m -94.79189,-345.47466 c -0.40954,5.89296 -0.29833,11.8093 -0.26755,17.71266 0.0367,5.44644 0.0578,10.89296 0.0691,16.3395 0.005,5.67338 -0.0795,11.3449 -0.0623,17.01857 0.11806,7.04221 -0.23116,14.07637 -0.24762,21.11789 0.0758,7.404 0.0949,14.80775 0.18537,22.21169 0.17702,6.10225 0.0296,12.20096 -0.0325,18.30206 -0.0399,6.45316 0.182,12.90517 0.008,19.35651 0.0662,7.46901 -0.11124,14.9353 -0.14442,22.40319 0.10178,7.24627 0.0963,14.49261 0.15991,21.73911 0.0649,5.70251 0.10615,11.4052 0.12752,17.10803 -0.1748,4.4849 1.10575,8.83139 1.7616,13.23604 0.65216,4.97564 0.73846,9.99965 0.80852,15.01002 0.39823,2.52639 -0.55653,5.42675 0.28065,7.90332 0.35257,1.04298 -0.77566,-2.06299 -1.23955,-3.06145 -75.04487,44.00024 -49.66395,37.26099 -40.28695,18.1381 2.03257,-4.27789 3.65704,-8.69586 5.85169,-12.90452 1.65447,-4.56749 4.32038,-8.59099 6.53994,-12.87113 3.07514,-5.02829 6.19966,-10.01877 9.38622,-14.97851 4.06339,-6.79446 7.71612,-13.8254 11.4198,-20.81986 3.34874,-5.98433 6.65708,-11.99135 10.00924,-17.97378 3.65456,-6.60425 7.08877,-13.32144 10.78248,-19.90606 4.35876,-7.29171 8.66438,-14.59123 12.67922,-22.07954 4.99863,-8.22425 9.56774,-16.69177 14.34723,-25.04263 4.27895,-7.10285 8.54196,-14.21241 12.58325,-21.45383 3.04333,-5.45153 6.21522,-10.85774 8.92077,-16.48853 3.65655,-5.44965 6.89809,-11.15919 10.40794,-16.69935 2.80458,-4.76925 5.44302,-9.62839 8.21893,-14.4156 1.43436,-2.72158 3.17464,-5.22939 4.54908,-7.98387 0,0 48.54438,-21.43983 48.54438,-21.43983 v 0 c -1.88068,2.45958 -2.64876,5.52678 -4.88495,7.77414 -2.48618,5.02481 -5.54586,9.77813 -8.35201,14.59204 -2.88641,5.78895 -6.87936,11.04393 -10.13705,16.64929 -3.59731,5.21563 -5.97989,11.28762 -9.34399,16.67577 -4.28037,7.16778 -8.44872,14.40168 -12.78651,21.53574 -4.82193,8.33392 -9.82656,16.5578 -14.48965,24.98817 -4.0846,7.28357 -7.84369,14.74309 -12.22413,21.859 -3.56095,6.72707 -7.89547,13.0174 -10.99773,19.99386 -3.21194,6.13041 -6.52363,12.18496 -10.07849,18.12519 -4.13972,6.74737 -7.27226,14.09432 -11.28828,20.92945 -2.86562,4.9771 -6.09481,9.70232 -8.70855,14.81641 -2.39668,3.00531 -0.32582,0.13829 -2.32178,3.86377 -1.53429,2.86376 -4.07116,5.05566 -4.56166,8.46635 -1.95056,4.32589 -4.55558,8.30141 -5.77905,12.93327 -11.4427,22.58477 -2.6638,13.21267 -50.82372,36.2192 -4.08998,-5.0011 -3.461,-6.99299 -3.31612,-13.27731 -0.0441,-4.79053 -0.0824,-9.5923 -0.59677,-14.36058 -0.60657,-4.66713 -2.04707,-9.23724 -1.96141,-13.96051 0.0215,-5.74615 0.0628,-11.49216 0.12752,-17.23799 0.0635,-7.30081 0.0585,-14.60147 0.15991,-21.90206 -0.0331,-7.41882 -0.21136,-14.83603 -0.14442,-22.25602 -0.17936,-6.45375 0.0521,-12.90865 0.008,-19.36431 -0.0626,-6.09004 -0.20897,-12.1777 -0.0325,-18.26899 0.0901,-7.46691 0.10977,-14.93362 0.18537,-22.40058 -0.0163,-6.95751 -0.36754,-13.90733 -0.24762,-20.86557 0.0171,-5.65251 -0.0669,-11.30283 -0.0623,-16.95504 0.0113,-5.47004 0.0325,-10.94004 0.0692,-16.40997 0.0301,-5.81217 0.15015,-11.639 -0.26755,-17.44001 0,0 47.49695,-24.20091 47.49695,-24.20091 z"
       inkscape:connector-curvature="0" />
    <path
       style="fill:#00ffff"
       id="path76"
       d="m 128.68866,-337.76843 c -0.39494,6.16391 -0.164,12.33313 -0.83988,18.47961 -0.91787,5.60108 -1.39784,11.24762 -1.90317,16.89479 -1.13133,5.55152 -1.92141,11.12644 -2.5253,16.75616 -1.05253,5.69539 -1.83079,11.43917 -2.94344,17.12281 -1.23595,6.91744 -2.77579,13.76729 -3.73869,20.72998 -0.99458,7.19001 -2.87018,14.20534 -4.31792,21.3067 -1.55265,6.43846 -3.01615,12.89825 -4.60847,19.32761 -1.94482,7.02363 -3.49651,14.14372 -5.42952,21.16934 -2.16737,9.11339 -6.03654,17.65862 -9.93871,26.1309 -3.1417,7.79677 -6.73269,15.38824 -10.50918,22.89299 -2.62488,5.47678 -5.92129,10.5774 -9.17883,15.68577 -1.00722,2.00671 -2.28319,3.8545 -3.45353,5.76626 0,0 -48.52977,21.3318 -48.52977,21.3318 v 0 c 1.24116,-1.83843 2.21532,-3.82678 3.68643,-5.50051 2.70121,-5.53612 6.99709,-10.10388 9.70104,-15.67553 3.80977,-7.62134 8.06212,-15.05187 11.2374,-22.97086 3.58676,-8.26965 7.5826,-16.44934 9.83917,-25.21275 1.90149,-6.9044 2.9859,-14.01263 5.31391,-20.80755 1.24254,-6.4929 2.76674,-12.94393 4.71007,-19.2668 1.37518,-7.03889 2.93064,-14.04224 4.52451,-21.03441 0.90643,-7.0095 2.0781,-13.94735 3.27985,-20.90052 1.18726,-5.63164 1.74231,-11.31752 3.04754,-16.93074 1.21176,-5.50576 0.56471,-11.26884 2.40291,-16.69184 1.32967,-5.5037 0.60058,-11.33782 2.0537,-16.86555 1.02181,-5.82731 1.21289,-11.62875 0.62293,-17.53675 0,0 47.49695,-24.20091 47.49695,-24.20091 z"
       inkscape:connector-curvature="0" />
    <path
       style="fill:#00ffff"
       id="path78"
       d="m 83.7281,-293.77548 c 1.40105,-4.83064 4.42182,-8.99758 7.13696,-13.17067 3.01072,-4.0306 7.02229,-7.08942 11.04595,-10.03768 15.88002,-9.22973 32.0365,-17.99942 47.64007,-27.68919 13.94634,-8.66063 -28.41685,16.44745 -42.66598,24.6003 -1.85283,1.06012 3.54297,-2.38927 5.39693,-3.4474 48.15861,-27.48604 30.39196,-21.87147 50.86709,-28.07148 4.40519,-2.60298 9.28977,-4.10311 13.88269,-6.26347 5.06892,-1.86242 10.22974,-3.36511 15.36095,-5.05293 5.769,-1.82626 11.77669,-2.48053 17.78801,-2.8254 5.26797,0.0226 10.66097,-0.76711 15.83224,0.39514 4.11986,1.00612 7.76895,3.35684 11.46007,5.36864 3.59673,2.1802 7.37472,4.32758 11.35983,5.74053 2.11122,1.8453 4.79534,2.15843 7.28531,3.06851 1.30759,0.47792 2.51631,1.19553 3.80549,1.7211 2.77239,0.9076 5.36821,2.121 8.19575,2.90685 0,0 -43.77877,29.79291 -43.77877,29.79291 v 0 c -2.87948,-1.0209 -5.7356,-2.10387 -8.59089,-3.18913 -3.7096,-1.56788 -7.55036,-2.79859 -11.04677,-4.84972 -3.99231,-1.91574 -7.92915,-3.95831 -11.76766,-6.16606 -3.17632,-1.80073 -6.52708,-3.48474 -10.21208,-3.82408 -5.00226,-0.11453 -10.01583,0.0188 -15.00344,0.421 -5.78481,0.62772 -11.48679,1.7406 -16.97409,3.73027 -5.14161,1.62772 -10.23737,3.44443 -15.20242,5.54921 -4.70461,1.82845 -9.1132,4.33188 -13.89273,5.98542 -17.49893,8.1175 -2.01001,1.02759 39.76368,-23.30103 1.79439,-1.04504 -3.5808,2.10373 -5.37121,3.15558 -15.79717,9.28075 -31.72057,18.34665 -47.47026,27.70775 -14.08227,8.37004 28.3119,-16.48966 42.46785,-24.73448 -4.0625,2.53244 -7.87153,5.38473 -11.45791,8.5115 -3.18527,3.17545 -5.19801,7.17354 -7.67847,10.88959 0,0 -48.17619,23.07842 -48.17619,23.07842 z"
       inkscape:connector-curvature="0" />
    <path
       style="fill:#00ffff"
       id="path80"
       d="m 124.44062,-228.89557 c 4.75143,-1.50174 9.43483,-3.36012 13.94548,-5.5177 5.24592,-1.78168 10.59178,-3.27913 16.04391,-4.29777 4.89802,-2.31103 10.12721,-3.28611 15.49165,-3.56645 5.88562,0.18042 11.51336,-1.52244 17.33715,-2.08155 6.44557,-0.59644 12.92554,-0.62413 19.39322,-0.71226 5.17161,0.68833 10.16504,1.87304 15.14672,3.33943 4.4643,1.94109 8.47044,4.63211 12.60012,7.15229 3.48539,2.69042 6.63136,5.75961 9.64106,8.96904 1.82493,2.54754 0.91548,1.38959 2.69368,3.50079 0,0 -45.55117,27.27159 -45.55117,27.27159 v 0 c -1.71748,-2.18304 -0.91195,-1.1373 -2.42266,-3.13253 -2.81607,-2.81559 -5.65111,-5.64168 -8.94277,-7.90859 -3.6559,-2.38624 -7.49171,-4.58785 -11.66574,-5.93165 -4.56957,-1.2211 -9.31339,-2.09195 -14.04325,-2.2541 -6.36851,0.10177 -12.74678,0.3047 -19.06081,1.2138 -5.80611,0.94963 -11.59884,1.71781 -17.47266,2.09868 -5.13774,0.94325 -10.00913,2.68175 -15.06499,3.94322 -5.28899,1.40602 -10.59673,2.87784 -15.58153,5.17266 -4.79031,1.84894 -9.555,3.84578 -14.16763,6.08134 0,0 41.68022,-33.34024 41.68022,-33.34024 z"
       inkscape:connector-curvature="0" />
    <path
       style="fill:#00ffff"
       id="path82"
       d="m 380.42538,-353.18088 c -0.0341,6.30318 -1.01371,12.50894 -1.76488,18.74914 -0.38735,6.71559 -1.2323,13.35176 -2.16109,20.00864 -0.60639,7.6176 -2.16936,15.10311 -3.08901,22.67577 -1.28435,9.21128 -2.58395,18.40999 -4.24904,27.56063 -2.0048,8.39708 -3.02823,16.97058 -4.82584,25.40507 -1.76157,9.77289 -2.79995,19.65873 -4.44807,29.44525 -1.69793,8.64039 -3.48395,17.25221 -4.67218,25.98042 -1.51039,7.86904 -2.05846,15.87177 -3.26321,23.78024 -1.43196,8.84251 -2.21314,17.77306 -2.53331,26.72014 -0.16459,6.38819 -0.10552,12.77906 -0.0675,19.1684 -0.004,3.58602 2.14208,5.22475 5.54437,4.05808 4.25023,-1.43558 8.77438,-1.46839 13.20711,-1.64875 5.52268,-1.41534 11.16541,-2.15587 16.84054,-2.57305 4.06701,-1.37528 8.43697,-1.21796 12.62186,-1.95304 11.49016,-2.01825 -6.26807,0.43751 7.29329,-1.3216 4.96992,-1.83832 10.29939,-2.21569 15.40277,-3.4328 2.061,-0.49153 4.03398,-1.29832 6.06049,-1.91685 8.55435,-1.52517 16.95713,-3.85228 25.31324,-6.24647 11.01149,-2.33934 21.80022,-5.525 32.61937,-8.62079 5.03131,-1.34936 10.05689,-2.4705 14.98397,-4.15911 0,0 -41.32767,31.8708 -41.32767,31.8708 v 0 c -4.77458,1.16419 -9.57139,2.24129 -14.30154,3.58074 -11.03287,3.13835 -22.05545,6.29341 -33.19825,9.0269 -8.59819,2.32926 -17.2545,4.43266 -25.87288,6.67593 -7.07326,1.78032 -14.30299,2.97188 -21.4137,4.59681 -6.82829,1.35421 -13.75213,2.25864 -20.61927,3.35159 -5.65419,0.6645 -11.21494,1.9088 -16.88344,2.42547 -4.66445,0.4412 -9.32442,1.65692 -14.01116,1.2667 -5.25289,-1.85413 -8.94857,-5.11889 -9.30804,-11.01421 0.0523,-6.55102 0.17075,-13.10227 0.51138,-19.64561 0.47113,-9.07614 1.03351,-18.13236 2.30797,-27.1395 0.93339,-7.88773 1.86521,-15.77144 3.1049,-23.61933 0.96186,-8.93337 3.33483,-17.5915 5.18327,-26.36797 1.19171,-9.83508 3.03677,-19.56925 4.17759,-29.41005 0.97197,-8.64491 3.06618,-17.19351 4.94097,-25.68849 2.00365,-8.87778 2.35666,-18.05119 4.18759,-26.98234 0.69396,-7.60892 1.97263,-15.0719 2.74257,-22.667 0.85644,-6.61867 1.78563,-13.20128 2.14018,-19.87251 0.62433,-5.94508 1.95402,-11.88235 1.32972,-17.86635 0,0 47.49695,-24.2009 47.49695,-24.2009 z"
       inkscape:connector-curvature="0" />
  </g>
</svg>
